<?xml version="1.0" encoding="utf-8"?>
<!-- Generator: Adobe Illustrator 26.2.1, SVG Export Plug-In . SVG Version: 6.00 Build 0)  -->
<svg version="1.1" id="Layer_1" xmlns="http://www.w3.org/2000/svg" xmlns:xlink="http://www.w3.org/1999/xlink" x="0px" y="0px"
	 viewBox="0 0 800 800" style="enable-background:new 0 0 800 800;" xml:space="preserve">
<style type="text/css">
	.st0{fill:#FFFFFF;}
</style>
<path class="st0" d="M645.1,199.9L645.1,199.9c0,24.9-20.1,45-45,45s-45-20.1-45-45c0-24.8,20.1-45,45-45l0,0
	C625,155,645.1,175.1,645.1,199.9L645.1,199.9z M400,525c-69,0-125-56-125-125S331,275,400,275S525,331,525,400l0,0v0
	C525,469,469.1,524.9,400,525L400,525L400,525L400,525z M400,207.5L400,207.5c-106.3,0-192.5,86.2-192.5,192.5
	S293.7,592.5,400,592.5c106.3,0,192.5-86.2,192.5-192.5l0,0c0,0,0,0,0,0C592.5,293.7,506.3,207.5,400,207.5
	C400,207.5,400,207.5,400,207.5L400,207.5L400,207.5z M400,92.6c100.1,0,112,0.5,151.5,2.2c25.1,0.3,48.9,5.1,71,13.4l-1.4-0.5
	c32.8,12.8,58.3,38.3,70.9,70.3l0.3,0.8c7.9,20.6,12.6,44.5,12.9,69.5v0.1c1.8,39.5,2.2,51.4,2.2,151.5s-0.5,112-2.3,151.5
	c-0.5,25.1-5.2,49-13.6,71l0.5-1.5c-6.5,16.9-16,31.3-28.1,43.2l0,0C652,676.4,637.6,686,621.5,692l-0.8,0.3
	c-20.7,7.9-44.7,12.6-69.7,12.9h-0.1c-39.8,1.8-51.5,2.2-151.8,2.2c-100.3,0-112-0.5-151.8-2.3c-25.2-0.5-49.2-5.2-71.3-13.6
	l1.5,0.5c-16.9-6.3-31.3-15.9-43.1-28l0,0c-12.2-11.7-21.8-26.2-27.8-42.3l-0.3-0.8c-7.9-20.7-12.7-44.6-13.1-69.6v-0.2
	c-1.4-39.4-1.9-51.5-1.9-151.3c0-99.8,0.5-112,1.9-151.9c0.5-25.2,5.2-49.1,13.6-71.2l-0.5,1.5c6.2-17,15.8-31.4,28.1-43.1l0.1,0
	c11.7-12.3,26.1-21.9,42.3-27.8l0.8-0.3c20.6-7.9,44.3-12.7,69.2-13.2h0.2c39.8-1.4,51.6-1.9,151.8-1.9L400,92.6z M400,25.1
	c-101.8,0-114.5,0.5-154.6,2.3c-32.9,0.7-64.1,7-92.9,18.1l1.9-0.6c-26,9.9-48.2,24.6-66.4,43.2l0,0c-18.6,18.3-33.3,40.4-42.8,65.2
	l-0.4,1.2c-10.4,26.9-16.8,58.2-17.4,90.7v0.3c-1.9,40-2.2,52.7-2.2,154.5s0.5,114.6,2.2,154.5c0.7,32.9,7.1,64,18.1,92.9l-0.6-1.9
	c19.9,50.5,59.1,89.8,108.4,109.2l1.3,0.5c26.9,10.4,58.2,16.7,90.7,17.4h0.3c40,1.9,52.7,2.2,154.5,2.2s114.6-0.5,154.5-2.2
	c32.9-0.7,64-7.1,92.9-18.1l-1.9,0.6c50.5-19.9,89.8-59.1,109.2-108.3l0.5-1.3c10.4-27,16.7-58.2,17.4-90.7v-0.3
	c1.9-40,2.2-52.7,2.2-154.6s-0.5-114.5-2.2-154.6c-0.7-32.9-7.1-64.1-18.1-92.9l0.6,1.9c-10-26-24.7-48.2-43.2-66.4l0,0
	c-18.2-18.6-40.4-33.3-65.2-42.8l-1.2-0.4c-26.9-10.4-58.1-16.8-90.7-17.4h-0.3C514.5,25.5,501.8,25.1,400,25.1L400,25.1z"/>
</svg>
