<?xml version="1.0" encoding="utf-8"?>
<!-- Generator: Adobe Illustrator 26.2.1, SVG Export Plug-In . SVG Version: 6.00 Build 0)  -->
<svg version="1.1" id="Layer_1" xmlns="http://www.w3.org/2000/svg" xmlns:xlink="http://www.w3.org/1999/xlink" x="0px" y="0px"
	 viewBox="0 0 800 800" style="enable-background:new 0 0 800 800;" xml:space="preserve">
<style type="text/css">
	.st0{fill:#FFFFFF;}
</style>
<path class="st0" d="M719.5,25.1h-639c-0.2,0-0.4,0-0.7,0c-30,0-54.3,24.1-54.7,54v641.8c0.4,29.9,24.7,54,54.7,54
	c0.2,0,0.5,0,0.7,0h638.9c0.2,0,0.4,0,0.7,0c30,0,54.4-24.1,54.9-54v0V79.1c-0.5-29.9-24.8-54-54.9-54c-0.2,0-0.5,0-0.7,0
	L719.5,25.1L719.5,25.1z M247.5,664H136.1V306.3h111.3V664z M191.8,257.3c-35.6,0-64.5-28.9-64.5-64.5s28.9-64.5,64.5-64.5
	s64.5,28.9,64.5,64.5l0,0c0,0,0,0,0,0.1C256.3,228.5,227.5,257.4,191.8,257.3C191.9,257.4,191.9,257.4,191.8,257.3L191.8,257.3
	L191.8,257.3z M663.9,664h-111v-174c0-41.5-0.9-94.9-57.8-94.9c-57.9,0-66.7,45.1-66.7,91.8v177h-111V306.3h106.7v48.8h1.5
	c20.7-34.9,58.1-57.9,101-57.9c1.5,0,3,0,4.5,0.1h-0.2c112.5,0,133.3,74,133.3,170.4L663.9,664L663.9,664z"/>
</svg>
