<?xml version="1.0" encoding="utf-8"?>
<!-- Generator: Adobe Illustrator 26.2.1, SVG Export Plug-In . SVG Version: 6.00 Build 0)  -->
<svg version="1.1" id="Layer_1" xmlns="http://www.w3.org/2000/svg" xmlns:xlink="http://www.w3.org/1999/xlink" x="0px" y="0px"
	 viewBox="0 0 800 800" style="enable-background:new 0 0 800 800;" xml:space="preserve">
<style type="text/css">
	.st0{fill:#FFFFFF;}
</style>
<path class="st0" d="M400.5,25.1C400.5,25.1,400.5,25.1,400.5,25.1C193.6,25.1,26,192.8,26,399.6c0,157.7,97.5,292.6,235.5,347.8
	l2.5,0.9c-2.2-14.9-3.4-32-3.4-49.5c0-20.5,1.7-40.5,5-60.1l-0.3,2.1c6.9-29.3,43.9-186.1,43.9-186.1c-7.1-15.9-11.2-34.5-11.2-54
	c0-0.6,0-1.1,0-1.7v0.1c0-52,30.2-91,67.7-91c0.2,0,0.5,0,0.7,0c26,0,47.1,21.1,47.1,47.1c0,2-0.1,4-0.4,5.9l0-0.2
	c-7.7,47.6-18.4,89.6-32.6,130l1.6-5.2c-1,4-1.7,8.6-1.7,13.4c0,30,24.3,54.3,54.3,54.3c1,0,1.9,0,2.9-0.1h-0.1
	c66.5,0,117.7-70.1,117.7-171.4c0.1-1.3,0.1-2.9,0.1-4.5c0-81.6-66.2-147.8-147.8-147.8c-3.1,0-6.1,0.1-9.1,0.3l0.4,0
	c-2.1-0.1-4.5-0.1-6.9-0.1c-89.5,0-162.1,72.6-162.1,162.1c0,0.2,0,0.3,0,0.5v0v0c0,32.2,10.4,61.9,28,86l-0.3-0.4
	c1.9,2,3.1,4.8,3.1,7.8c0,1.1-0.1,2.1-0.4,3.1l0-0.1c-2.8,11.7-9.2,37.4-10.4,42.6c-1.7,7-5.4,8.5-12.5,5.2
	c-46.1-30.4-76.1-81.9-76.1-140.4c0-1.7,0-3.4,0.1-5v0.2c0-118,85.8-226.6,247.4-226.6c3.3-0.2,7.2-0.3,11-0.3
	c120.3,0,218,96.5,219.9,216.4v0.2C639.7,510,558.2,614,445,614c-1,0-2.1,0.1-3.3,0.1c-34.1,0-64.3-16.9-82.6-42.8l-0.2-0.3
	l-23.4,89c-12.2,37.5-28.1,70-47.8,99.8l0.9-1.5c33.1,10.6,71.3,16.8,110.8,16.8c206.9,0,374.5-167.7,374.5-374.5
	c0-206.8-167.6-374.4-374.4-374.5l0,0L400.5,25.1z"/>
</svg>
