<?xml version="1.0" encoding="utf-8"?>
<!-- Generator: Adobe Illustrator 26.2.1, SVG Export Plug-In . SVG Version: 6.00 Build 0)  -->
<svg version="1.1" id="Layer_1" xmlns="http://www.w3.org/2000/svg" xmlns:xlink="http://www.w3.org/1999/xlink" x="0px" y="0px"
	 viewBox="0 0 800 800" style="enable-background:new 0 0 800 800;" xml:space="preserve">
<style type="text/css">
	.st0{fill:#FFFFFF;}
</style>
<path class="st0" d="M772.9,168.2c-25.7,11.6-55.4,20.1-86.6,24l-1.5,0.1c31.7-19.3,55.6-48.8,67.2-83.8l0.3-1.1
	c-28.1,16.7-60.8,29.5-95.5,36.6l-2.1,0.3c-28.1-30-67.9-48.6-112.1-48.6c-84.8,0-153.5,68.7-153.5,153.5c0,12.4,1.5,24.5,4.2,36
	l-0.2-1c-127.8-6.4-240.3-67-315.7-159.2l-0.6-0.8C63.8,146.1,56,172.4,56,200.6c0,0.3,0,0.6,0,1v-0.1c0,0,0,0.1,0,0.1
	c0,53,26.9,99.7,67.7,127.3l0.5,0.4c-25.7-0.9-49.5-7.9-70.3-19.6l0.8,0.4v1.9c0,0,0,0,0,0c0,74,52.4,135.8,122.1,150.4l1,0.2
	c-12.1,3.4-26,5.3-40.4,5.3c-10.1,0-20-1-29.6-2.8l1,0.1c20.3,61.5,76.7,105.3,143.5,106.6h0.1c-51.8,41-118,65.7-190.1,65.7
	c-0.1,0-0.2,0-0.3,0h0c-12.9,0-25.5-0.8-38-2.2l1.5,0.2c66.6,43.2,148,68.9,235.5,68.9c0.1,0,0.2,0,0.4,0h0c0.9,0,2,0,3.1,0
	c239.5,0,433.6-194.1,433.6-433.6c0-1,0-1.9,0-2.9v0.1c0-6.5,0-13.1-0.5-19.6c30.2-22,55.7-48.3,76-78.4l0.7-1.1L772.9,168.2z"/>
</svg>
